<svg width="150" height="145" viewBox="0 0 150 145" fill="white" xmlns="http://www.w3.org/2000/svg">
<g clipPath="url(#clip0_8_2411)">
<path d="M39.0477 34.6819C39.0477 32.648 37.5864 31.3404 36.5421 29.8367C33.5165 25.4822 30.37 21.2073 27.4421 16.7887C25.0542 13.3537 23.3754 9.48112 22.5031 5.39577C22.3672 4.65114 22.4114 3.88511 22.6324 3.16096C22.8533 2.4368 23.2449 1.77545 23.7739 1.23164C24.285 0.680395 24.951 0.2951 25.6855 0.126166C26.42 -0.0427667 27.1885 0.0124123 27.891 0.28452C30.072 1.24255 31.586 2.93279 33.0442 4.66437C38.9053 11.6244 44.7369 18.6093 50.5391 25.6194C56.1139 32.325 61.7693 38.9673 67.2039 45.7822C73.1106 53.1883 78.8006 60.7644 84.592 68.2613C86.2148 70.3612 87.7679 72.5232 89.5142 74.517C97.2694 83.3697 104.225 92.8362 111.317 102.207C114.058 105.829 117.142 109.191 119.924 112.784C126.417 121.172 132.854 129.603 139.235 138.076C140.732 140.067 140.131 142.991 138.304 144.107C137.46 144.547 136.501 144.719 135.555 144.6C134.61 144.481 133.725 144.075 133.019 143.439C131.949 142.372 130.921 141.259 129.923 140.126C121.399 130.453 112.877 120.779 104.358 111.104C103.877 110.514 103.246 110.062 102.531 109.795C101.816 109.527 101.043 109.453 100.289 109.58C97.6682 110.015 95.0663 110.56 92.4526 111.042C78.2312 113.666 64.4377 111.717 50.9333 107.064C39.0211 102.959 27.6964 97.6374 17.4551 90.2495C14.3517 88.0674 11.423 85.649 8.6954 83.0169C6.57805 80.8536 4.7374 78.4384 3.21503 75.8265C-0.133237 70.2531 0.262236 67.6586 4.86042 62.6825C13.3827 53.4909 23.0881 45.4595 33.7243 38.7964C35.6171 37.6027 37.9572 36.9449 39.0477 34.6819ZM59.904 58.3091C56.8622 53.4872 52.9712 49.3917 48.8565 45.5194C48.1701 44.8721 46.7157 44.7744 45.6506 44.8592C44.5252 45.0207 43.4424 45.3989 42.4624 45.9725C31.3037 51.7621 21.2739 59.1519 11.8908 67.4463C11.5244 67.7421 11.222 68.1085 11.0016 68.5241C10.7813 68.939 10.6475 69.3941 10.6086 69.8621C10.5697 70.3301 10.6263 70.8014 10.7751 71.2467C10.9239 71.6921 11.1617 72.1031 11.4744 72.4553C13.9915 75.2821 16.8965 77.7426 20.1035 79.7642C31.2258 87.1618 43.3428 92.4517 56.1249 96.2165C66.4375 99.2518 76.9937 99.7949 87.6501 98.4303C88.453 98.3572 89.2221 98.0749 89.8799 97.6108C90.5377 97.1467 91.0602 96.5181 91.3946 95.7886C90.3477 94.4053 89.2052 92.921 88.0893 91.4172C85.2531 87.5948 82.0747 84.5556 76.6859 86.0814C75.9344 86.1843 75.1731 86.1888 74.421 86.0943C66.3568 86.1008 56.5929 79.4521 57.9892 67.2087C58.3243 64.2612 59.226 61.38 59.904 58.3066V58.3091Z" fill="current"/>
<path d="M120.901 100.556C118.15 99.0719 116.36 96.7189 114.748 94.0221C114.243 93.1955 114.048 92.2168 114.198 91.2607C114.348 90.3046 114.834 89.432 115.568 88.7976C115.891 88.5193 116.235 88.2662 116.598 88.0415C120.808 85.462 124.702 82.4066 128.205 78.9357C141.854 65.4895 141.113 68.7837 128.205 56.1423C120.202 48.3097 110.08 43.807 99.3736 40.7465C92.7877 38.8641 86.056 37.6969 79.1454 37.9629C77.2488 38.0367 75.3475 37.9939 73.4496 38.0399C70.5789 38.1105 68.3224 36.8244 66.4615 34.8125C65.4446 33.712 64.6267 32.4284 63.7151 31.2309C63.1504 30.4884 63.8394 28.8028 64.7724 28.4946C72.1769 26.0484 79.7674 26.3124 87.3306 27.2284C108.087 29.7426 125.533 39.1391 140.609 53.1951C143.076 55.4943 145.103 58.2926 147.147 60.9997C148.7 63.1812 149.52 65.7957 149.489 68.4685C149.52 69.9372 149.474 71.6591 148.761 72.8508C142.094 84.0022 134.4 94.2209 122.261 100.128C121.817 100.3 121.363 100.443 120.901 100.556Z" fill="current"/>
<path d="M96.9916 66.2163C96.8068 67.6812 95.715 70.9754 95.1698 70.3009C90.9073 65.0576 84.4704 57.3836 80.3836 52.0017C80.2158 51.7187 80.1214 51.3985 80.1091 51.0701C80.0967 50.7417 80.1663 50.4155 80.3121 50.1206C80.5704 49.8652 80.882 49.6689 81.2243 49.5453C81.5665 49.4218 81.9322 49.374 82.2946 49.4053C85.6657 49.9392 88.8005 51.4571 91.3029 53.7664C95.1581 57.2775 97.533 61.9193 96.9916 66.2163Z" fill="current"/>
</g>
<defs>
<clipPath id="clip0_8_2411">
<rect width="149" height="145" fill="white" transform="translate(0.777344)"/>
</clipPath>
</defs>
</svg>
